<?xml version="1.0" encoding="UTF-8"?>
<svg width="128" height="128" viewBox="0 0 128 128" xmlns="http://www.w3.org/2000/svg">
  <!-- Background circle -->
  <circle cx="64" cy="64" r="60" fill="#1e3a8a" stroke="#1e40af" stroke-width="2"/>
  
  <!-- Network nodes (devices) -->
  <circle cx="32" cy="32" r="6" fill="#22d3ee"/>
  <circle cx="96" cy="32" r="6" fill="#22d3ee"/>
  <circle cx="32" cy="96" r="6" fill="#22d3ee"/>
  <circle cx="96" cy="96" r="6" fill="#22d3ee"/>
  <circle cx="64" cy="64" r="8" fill="#fbbf24"/>
  
  <!-- Network connections -->
  <line x1="32" y1="32" x2="64" y2="64" stroke="#22d3ee" stroke-width="2"/>
  <line x1="96" y1="32" x2="64" y2="64" stroke="#22d3ee" stroke-width="2"/>
  <line x1="32" y1="96" x2="64" y2="64" stroke="#22d3ee" stroke-width="2"/>
  <line x1="96" y1="96" x2="64" y2="64" stroke="#22d3ee" stroke-width="2"/>
  
  <!-- Wave pattern (representing marine/water) -->
  <path d="M 20 110 Q 30 105 40 110 T 60 110 T 80 110 T 100 110 T 120 110" 
        stroke="#60a5fa" stroke-width="2" fill="none"/>
  <path d="M 15 115 Q 25 110 35 115 T 55 115 T 75 115 T 95 115 T 115 115" 
        stroke="#60a5fa" stroke-width="1.5" fill="none" opacity="0.7"/>
  
  <!-- Monitoring symbol (small radar sweep) -->
  <circle cx="64" cy="40" r="3" fill="#10b981"/>
  <path d="M 64 40 L 70 34" stroke="#10b981" stroke-width="2" opacity="0.8"/>
  <path d="M 64 40 A 8 8 0 0 1 72 32" stroke="#10b981" stroke-width="1.5" fill="none" opacity="0.5"/>
  <path d="M 64 40 A 12 12 0 0 1 76 28" stroke="#10b981" stroke-width="1" fill="none" opacity="0.3"/>
</svg>
